<svg xmlns="http://www.w3.org/2000/svg"  viewBox="0 0 64 64" width="512px" height="512px" baseProfile="basic"><linearGradient id="Sq37eURzsW3asvK668sc5a" x1="32" x2="32" y1="9" y2="55" gradientUnits="userSpaceOnUse"><stop offset="0" stop-color="#1a6dff"/><stop offset="1" stop-color="#c822ff"/></linearGradient><path fill="url(#Sq37eURzsW3asvK668sc5a)" d="M49,55H15c-3.309,0-6-2.691-6-6V15c0-3.309,2.691-6,6-6h34c3.309,0,6,2.691,6,6v34	C55,52.309,52.309,55,49,55z M15,11c-2.206,0-4,1.794-4,4v34c0,2.206,1.794,4,4,4h34c2.206,0,4-1.794,4-4V15c0-2.206-1.794-4-4-4H15	z"/><linearGradient id="Sq37eURzsW3asvK668sc5b" x1="32" x2="32" y1="13" y2="51" gradientUnits="userSpaceOnUse"><stop offset="0" stop-color="#6dc7ff"/><stop offset="1" stop-color="#e6abff"/></linearGradient><path fill="url(#Sq37eURzsW3asvK668sc5b)" d="M43.683,33.5h-3.91c0.169-1.018,1.057-1.75,1.977-1.75	C42.768,31.75,43.553,32.567,43.683,33.5z M51,15v34c0,1.1-0.9,2-2,2H15c-1.1,0-2-0.9-2-2V15c0-1.1,0.9-2,2-2h34	C50.1,13,51,13.9,51,15z M25,37h-4V25.5h-2V39h6V37z M28,30h-2v9h2V30z M28,27c0-0.552-0.448-1-1-1s-1,0.448-1,1	c0,0.552,0.448,1,1,1S28,27.552,28,27z M33.25,39l4.438-9h-2.219l-2.219,5l-2.219-5h-2.219L33.25,39z M39.545,35h6.205	c0-2.678-1.332-5-4-5c-2.347,0-4.25,2.015-4.25,4.5s1.903,4.5,4.25,4.5c1.743,0,3.003-0.774,3.844-2.291l-1.647-0.934	C43.188,36.811,42.531,37,41.75,37C40.663,37,39.755,36.14,39.545,35z"/></svg>